# Blender v2.78 (sub 0) OBJ File: ''
# www.blender.org
mtllib leftupperarm.mtl
o sub01.000_sub01.032
v -10.099100 1.819702 -3.719600
v -9.213400 3.411201 -3.413898
v -9.705100 1.662302 -3.751300
v -7.767500 5.656900 -2.776298
v -8.213700 5.772800 -3.075298
v -7.383300 8.648600 -2.391698
v -6.950700 8.521900 -2.095797
v -8.573300 -0.127698 -3.760700
v -9.069700 -0.262298 -3.498600
v -9.133100 -0.162998 -3.694400
v -9.422700 -0.436998 -3.589100
v -9.416900 -0.409798 -3.291400
v -9.975700 -0.174198 -3.308700
v -9.865500 -0.071700 -3.001200
v -9.794600 0.298400 -2.907700
v -10.130000 0.035502 -3.117100
v -6.294100 11.148900 -0.731396
v -5.769100 10.891000 -1.026896
v -6.304300 11.320800 -0.949296
v -6.074300 10.155000 -0.998996
v -6.338100 10.167800 -0.801896
v -6.518000 9.672900 -1.273596
v -8.935600 0.834602 -3.241400
v -8.712400 1.014202 -3.441200
v -8.681100 1.440802 -3.500200
v -6.256600 10.851800 -0.550596
v -10.098800 1.880602 -3.601100
v -10.452800 1.395402 -3.631400
v -10.044900 1.263902 -3.364800
v -9.845600 1.718402 -3.378000
v -9.257100 0.570202 -3.251900
v -8.854200 0.129702 -3.256000
v -8.876400 0.650702 -3.233500
v -8.955700 -0.198398 -3.370700
v -7.681700 9.905700 -1.544896
v -7.588700 10.689900 -1.829896
v -7.325300 10.528600 -2.056896
v -9.327300 -0.284999 -3.034100
v -7.651800 8.683400 -2.310097
v -7.865000 8.675100 -1.888598
v -8.221000 5.646300 -2.146098
v -7.495600 8.501100 -1.447298
v -8.518000 5.815200 -2.517098
v -10.548100 0.493902 -3.795300
v -10.272400 0.392702 -3.903600
v -10.350800 0.026002 -3.572100
v -8.594100 0.117202 -3.343400
v -8.486900 0.121402 -3.794900
v -8.663500 0.739102 -3.715200
v -8.663000 0.670302 -3.411200
v -10.365400 0.771300 -3.049500
v -10.479400 0.423300 -2.743300
v -6.258300 11.409300 -1.180496
v -6.560700 11.518800 -1.297996
v -10.144600 0.362302 -3.967400
v -10.030900 0.750402 -3.920100
v -9.811600 0.359402 -3.732400
v -9.860800 0.236602 -3.760800
v -6.378500 11.445100 -1.778596
v -5.828700 11.183600 -1.554896
v -6.184200 10.850700 -2.271096
v -10.785200 0.845202 -3.448400
v -9.270200 0.111000 -2.949100
v -8.584700 -0.081098 -3.817900
v -9.347400 0.229502 -3.817400
v -9.007100 0.538602 -3.807000
v -6.951900 8.441100 -1.727298
v -7.947500 5.616400 -2.319398
v -7.746000 5.618701 -2.517098
v -9.000300 3.313700 -3.020998
v -6.620700 10.131600 -0.589896
v -8.419600 5.810400 -2.962198
v -10.265300 0.834302 -3.919000
v -10.154800 1.188402 -3.878900
v -10.685000 0.471900 -2.880300
v -10.669600 0.030600 -3.062200
v -6.742000 10.659600 -2.229296
v -6.601800 10.999100 -2.309196
v -9.123600 0.800902 -3.765000
v -8.756600 1.071702 -3.671400
v -5.730200 10.582700 -1.923096
v -6.059700 10.172200 -2.042596
v -6.336100 10.489600 -2.262196
v -7.157200 10.498000 -0.870796
v -6.874900 11.103300 -0.701196
v -7.595700 11.040100 -1.228096
v -10.397300 1.379302 -3.750600
v -10.472400 0.981702 -3.823300
v -10.856200 0.544802 -3.408000
v -8.308800 3.214401 -3.259099
v -9.308200 1.554202 -3.733000
v -8.845500 3.322001 -3.552500
v -8.321100 3.172200 -3.095598
v -8.497300 3.168200 -2.896399
v -9.626800 1.041302 -3.753000
v -10.666300 0.678800 -3.102200
v -10.707300 0.224402 -3.197700
v -6.013300 11.347000 -1.361796
v -6.322100 11.516500 -1.481196
v -7.664200 10.564500 -1.329896
v -7.644200 11.041300 -1.536296
v -7.241100 10.951900 -2.123996
v -7.190800 11.369200 -1.518196
v -7.263100 9.811400 -1.163896
v -6.851100 9.673500 -0.991296
v -8.761600 1.458402 -3.634900
v -9.208100 0.919502 -3.734900
v -9.748900 -0.000198 -3.668800
v -9.748600 -0.164098 -3.490100
v -10.192600 -0.061698 -3.340300
v -5.941400 10.028300 -1.625996
v -10.227400 -0.067798 -3.675700
v -8.551700 -0.073098 -3.681400
v -9.214200 0.805302 -3.122400
v -5.728100 10.551700 -1.000296
v -9.946200 -0.121698 -3.534700
v -10.593100 -0.014398 -3.411500
v -10.496500 0.009802 -3.506000
v -10.819800 0.330702 -3.542200
v -6.768100 11.502100 -1.275996
v -7.116300 11.438200 -1.339596
v -6.928900 11.340300 -0.934996
v -9.102300 -0.502098 -3.340300
v -9.574700 0.970602 -3.140500
v -9.748800 0.654402 -3.110400
v -9.258400 -0.322998 -3.870800
v -9.203200 2.368802 -3.678699
v -9.241700 1.548000 -3.025900
v -8.819700 3.215000 -2.736700
v -7.142200 8.433100 -1.503198
v -9.483600 -0.191298 -3.741900
v -7.163700 11.145000 -0.712496
v -7.038000 8.417900 -1.579098
v -8.987300 1.466700 -3.171300
vn -0.0906 0.2329 -0.9683
vn -0.1959 0.2341 -0.9523
vn 0.0282 0.1305 -0.9910
vn 0.8594 -0.1053 -0.5003
vn 0.1002 0.1871 -0.9772
vn 0.2400 0.0265 -0.9704
vn 0.8640 -0.2640 -0.4288
vn -0.0115 -0.8392 -0.5437
vn 0.0026 -0.8915 -0.4530
vn -0.0608 -0.7129 -0.6986
vn -0.2031 -0.9777 -0.0534
vn -0.3353 -0.9000 0.2785
vn -0.3627 -0.9201 0.1480
vn -0.1625 -0.2006 0.9661
vn -0.1403 -0.3700 0.9184
vn -0.2212 -0.7105 0.6681
vn 0.2232 0.6293 0.7444
vn 0.6477 0.5119 0.5643
vn 0.6904 0.5447 0.4762
vn 0.5860 -0.6504 0.4833
vn 0.5012 -0.5517 0.6666
vn 0.5594 -0.6084 0.5630
vn 0.5665 0.0877 0.8194
vn 0.6142 0.1066 0.7819
vn 0.6952 -0.0859 0.7137
vn 0.4116 0.0947 0.9064
vn -0.7218 0.6163 -0.3149
vn -0.7291 0.5886 -0.3492
vn -0.8009 0.4165 -0.4302
vn -0.5354 0.2292 0.8129
vn -0.4143 0.3860 0.8242
vn -0.3371 0.3831 0.8600
vn -0.4922 0.1498 0.8575
vn 0.0627 -0.3545 0.9330
vn 0.2814 0.1388 0.9495
vn 0.3473 -0.0004 0.9378
vn 0.4081 -0.6706 0.6194
vn 0.6433 -0.3653 0.6728
vn 0.4291 -0.7785 0.4580
vn -0.9005 0.0941 -0.4245
vn -0.7187 0.0667 -0.6921
vn -0.6058 0.0288 -0.7951
vn 0.3894 -0.8959 0.2138
vn 0.4390 -0.8589 0.2637
vn -0.5971 0.2668 -0.7565
vn -0.8909 0.2797 -0.3578
vn -0.7854 0.0410 0.6176
vn -0.3753 -0.1306 0.9177
vn -0.7474 -0.0081 0.6643
vn -0.8085 0.0429 0.5869
vn -0.5746 -0.1498 -0.8046
vn -0.5254 -0.2837 -0.8022
vn -0.5204 -0.4781 -0.7076
vn 0.9847 0.0614 0.1630
vn 0.9858 -0.1680 -0.0066
vn 0.9719 0.2111 0.1043
vn 0.9846 0.1731 -0.0240
vn -0.0834 0.6490 0.7562
vn -0.1034 0.6878 0.7185
vn 0.2591 0.5051 0.8232
vn 0.1493 0.8651 0.4789
vn 0.3274 0.8864 0.3274
vn 0.0306 0.9858 0.1650
vn 0.1066 -0.1978 -0.9744
vn 0.2434 0.0983 -0.9649
vn 0.5761 -0.0514 -0.8157
vn 0.3819 -0.3722 -0.8459
vn 0.1192 0.8978 -0.4240
vn 0.5897 0.6614 -0.4635
vn 0.5183 0.5973 -0.6121
vn -0.3878 0.6629 0.6404
vn -0.0222 -0.2068 0.9781
vn -0.0162 -0.2249 0.9743
vn -0.0232 -0.2844 -0.9584
vn -0.1888 -0.0917 -0.9777
vn 0.0611 0.1217 -0.9907
vn 0.1211 0.1225 -0.9851
vn 0.8804 -0.4450 0.1637
vn 0.6006 -0.3468 0.7204
vn 0.9239 -0.3046 0.2314
vn -0.7564 0.1199 0.6431
vn 0.5504 -0.5330 0.6426
vn -0.9078 0.3106 -0.2817
vn -0.2499 0.0636 -0.9662
vn -0.0475 0.1813 -0.9823
vn -0.5763 -0.3286 0.7483
vn 0.4792 0.0734 0.8747
vn -0.1784 0.0002 -0.9840
vn -0.0554 0.3285 -0.9429
vn 0.2366 -0.1610 -0.9582
vn 0.0160 0.1857 -0.9825
vn 0.0930 0.1785 -0.9795
vn 0.1405 0.1834 -0.9730
vn 0.9446 -0.1700 -0.2808
vn 0.6693 -0.3501 -0.6553
vn 0.2063 -0.0807 -0.9752
vn -0.6045 -0.0967 0.7907
vn -0.2675 0.2080 0.9408
vn -0.6352 -0.0048 0.7723
vn -0.5943 0.3400 -0.7289
vn -0.7829 0.1592 -0.6015
vn -0.6078 0.1864 -0.7719
vn -0.7578 0.1818 -0.6267
vn -0.3745 0.2839 -0.8827
vn 0.7457 -0.0545 -0.6640
vn 0.1839 0.0378 -0.9822
vn 0.0399 0.1489 -0.9880
vn -0.6775 0.6549 -0.3348
vn 0.6964 -0.3076 0.6483
vn 0.5378 -0.2904 0.7915
vn 0.1598 0.0824 -0.9837
vn -0.9365 0.1089 0.3333
vn -0.9685 -0.2001 0.1479
vn -0.9975 -0.0015 0.0712
vn -0.4479 -0.1679 0.8782
vn 0.5052 0.8626 0.0260
vn 0.2748 0.9615 0.0053
vn -0.9977 0.0511 -0.0447
vn -0.9820 0.1083 0.1550
vn -0.9991 0.0418 -0.0003
vn -0.4732 0.4033 -0.7833
vn -0.3980 0.8797 -0.2602
vn -0.5485 -0.2196 0.8068
vn 0.2142 -0.5622 0.7988
vn 0.6050 0.0135 -0.7961
vn 0.0517 0.1111 -0.9925
vn -0.7093 -0.5201 -0.4758
vn -0.6483 -0.5616 -0.5140
vn -0.6218 -0.5156 -0.5895
vn -0.2908 -0.9471 0.1359
vn -0.0012 -0.9000 0.4358
vn 0.8160 -0.5657 0.1191
vn -0.2201 -0.9593 -0.1767
vn -0.3799 -0.9244 -0.0333
vn 0.9600 -0.2619 0.0992
vn 0.9054 -0.3475 -0.2439
vn 0.2034 -0.1552 0.9667
vn -0.9893 0.0217 -0.1440
vn 0.6068 -0.1107 0.7871
vn 0.8863 -0.3705 0.2779
vn 0.9851 0.1714 -0.0162
vn 0.9893 0.1458 -0.0072
vn 0.9226 -0.1553 -0.3532
vn 0.9562 0.0078 -0.2927
vn -0.1098 -0.9649 -0.2385
vn -0.1509 -0.9584 -0.2423
vn -0.0671 -0.9844 -0.1628
vn -0.0090 -0.9665 -0.2567
vn -0.9301 0.3021 -0.2089
vn -0.9167 0.3422 -0.2064
vn -0.5999 -0.2950 -0.7437
vn -0.9132 -0.0235 0.4069
vn -0.8982 -0.4062 0.1680
vn 0.7372 0.4866 0.4687
vn -0.3860 -0.8066 0.4477
vn -0.1043 0.9900 0.0951
vn -0.4054 0.9029 0.1429
vn -0.1022 0.8612 0.4978
vn 0.9855 0.1411 -0.0943
vn 0.0718 -0.5445 -0.8357
vn 0.1787 -0.5552 -0.8123
vn -0.9102 -0.4135 -0.0244
vn 0.1598 0.0217 0.9869
vn -0.4065 -0.5311 -0.7434
vn -0.2490 0.1001 0.9633
vn 0.0962 0.2182 0.9712
vn -0.6783 -0.1574 0.7177
vn -0.6839 -0.1556 0.7128
vn -0.3077 0.7363 0.6027
vn 0.0717 -0.9384 -0.3379
vn -0.1015 -0.9866 -0.1274
vn -0.0445 0.1446 -0.9885
vn -0.1029 -0.0778 0.9916
vn -0.1009 -0.1815 0.9782
vn 0.9773 -0.2104 -0.0247
vn 0.2206 -0.3400 0.9142
vn -0.6049 -0.4827 -0.6333
vn -0.6110 -0.5459 -0.5733
vn -0.6324 -0.5160 -0.5777
vn 0.6068 0.1848 0.7731
vn -0.2613 0.7169 0.6464
vn 0.5783 -0.0433 -0.8147
vn 0.3579 -0.3211 0.8768
vn 0.1529 -0.8454 0.5118
vn 0.1263 -0.8575 0.4987
vn -0.6226 -0.3951 -0.6755
vn 0.0699 -0.6589 0.7490
vn -0.2422 0.7463 0.6199
vn 0.6535 -0.4310 0.6222
vn 0.5118 0.1808 -0.8399
vn -0.6582 0.6754 -0.3325
vn -0.1477 -0.9377 0.3145
vn 0.8394 -0.3429 -0.4216
vn 0.8147 -0.3925 -0.4268
vn 0.8508 -0.1468 -0.5046
vn 0.8280 -0.0312 -0.5599
vn -0.4053 -0.0327 -0.9136
vn -0.4949 0.0043 -0.8690
vn -0.6033 0.7870 0.1290
vn 0.6198 -0.3362 0.7091
vn 0.6816 -0.2462 0.6891
vn -0.2959 -0.5432 -0.7858
vn -0.2690 -0.3828 -0.8838
vn 0.7715 -0.4202 -0.4777
vn 0.5838 -0.1788 0.7919
vn 0.3638 0.4799 0.7983
vn 0.3866 0.5000 0.7750
vn 0.2815 0.1387 0.9495
vn 0.7909 0.2178 0.5718
vn -0.2726 -0.1394 -0.9520
vn -0.5593 -0.4057 -0.7228
vn -0.8671 0.2619 0.4237
vn -0.2930 -0.8162 0.4979
vn -0.9798 -0.1997 -0.0130
vn 0.3373 -0.9272 0.1626
vn -0.4954 -0.5728 -0.6531
vn 0.6952 0.4550 -0.5565
vn -0.8376 0.2069 0.5056
vn -0.7885 0.3405 0.5122
vn 0.2918 -0.5668 -0.7705
vn 0.8243 -0.3473 -0.4472
usemtl Bones___Vray.012
s 1
f 1//1 2//2 3//3
f 4//4 5//5 6//6
f 6//6 7//7 4//4
f 8//8 9//9 10//10
f 11//11 12//12 13//13
f 14//14 15//15 16//16
f 17//17 18//18 19//19
f 20//20 21//21 22//22
f 23//23 24//24 25//25
f 18//18 17//17 26//26
f 27//27 1//28 28//29
f 27//30 28//31 29//32
f 30//33 27//30 29//32
f 31//34 32//35 33//36
f 32//37 34//38 8//39
f 35//40 36//41 37//42
f 34//43 38//44 12//44
f 35//40 37//42 39//45
f 39//45 40//46 35//40
f 41//47 42//48 40//49
f 40//49 43//50 41//47
f 44//51 45//52 46//53
f 47//54 48//55 49//56
f 47//54 49//56 50//57
f 51//58 52//59 15//60
f 19//61 53//62 54//63
f 55//64 56//65 57//66
f 57//66 58//67 55//64
f 59//68 60//69 61//70
f 29//32 28//31 62//71
f 14//14 38//72 63//73
f 63//73 15//15 14//14
f 64//74 65//75 66//76
f 48//77 64//74 66//76
f 67//78 68//79 69//80
f 30//33 70//81 27//30
f 21//21 26//26 71//82
f 40//46 39//45 72//83
f 73//84 74//85 56//65
f 52//86 75//86 76//86
f 33//36 32//35 47//87
f 77//88 78//89 61//90
f 79//91 80//92 49//93
f 79//91 49//93 66//76
f 61//90 81//94 82//95
f 83//96 61//90 82//95
f 84//97 85//98 86//99
f 74//85 87//100 1//1
f 62//101 28//29 88//102
f 62//101 88//102 44//51
f 44//51 89//103 62//101
f 5//5 72//104 39//45
f 90//105 91//106 92//107
f 70//108 1//28 27//27
f 93//109 69//80 68//79
f 93//109 68//79 94//110
f 3//3 95//111 74//85
f 96//112 97//113 75//114
f 84//97 71//115 85//98
f 98//116 60//69 59//68
f 59//68 99//117 98//116
f 100//118 86//119 101//120
f 102//121 103//122 59//68
f 78//89 102//121 59//68
f 104//123 105//124 71//115
f 106//125 107//126 91//106
f 58//127 108//128 109//129
f 110//130 16//16 76//131
f 111//132 20//20 22//22
f 6//6 39//45 77//88
f 40//49 42//48 104//123
f 110//130 46//133 112//134
f 48//55 113//135 8//136
f 114//137 31//34 33//36
f 36//138 35//40 100//118
f 115//139 26//26 21//21
f 20//20 115//140 21//21
f 44//51 88//102 73//84
f 73//84 45//52 44//51
f 13//13 110//130 112//134
f 81//94 60//141 18//142
f 106//125 25//143 24//144
f 116//145 109//146 13//13
f 46//133 110//130 117//147
f 117//147 118//148 46//133
f 6//6 83//96 82//95
f 82//95 7//7 6//6
f 90//105 106//125 91//106
f 43//149 72//83 2//150
f 64//74 10//10 65//75
f 44//51 119//151 89//103
f 89//152 119//153 97//113
f 60//154 19//19 18//18
f 13//13 14//155 16//16
f 13//13 12//12 14//155
f 16//16 110//130 13//13
f 59//68 103//122 120//156
f 59//68 120//156 54//63
f 59//68 54//63 99//117
f 121//157 122//158 120//156
f 50//57 49//56 80//159
f 58//67 109//160 116//161
f 117//162 97//113 119//153
f 5//5 92//107 72//104
f 34//163 12//163 123//163
f 92//107 2//2 72//104
f 113//135 48//55 47//54
f 44//51 118//164 119//151
f 114//137 124//165 125//166
f 81//94 18//142 115//140
f 26//26 85//98 71//115
f 104//123 84//97 100//167
f 104//123 100//167 35//168
f 19//61 122//158 17//17
f 96//169 51//58 62//71
f 126//170 123//171 11//11
f 3//3 127//172 91//106
f 70//81 128//173 129//174
f 93//175 25//143 90//105
f 104//123 42//48 130//176
f 66//76 49//93 48//77
f 11//177 131//178 126//179
f 24//144 80//159 106//125
f 115//140 20//20 111//132
f 112//134 116//145 13//13
f 50//180 24//24 23//23
f 50//180 23//23 33//36
f 81//94 115//140 111//132
f 52//59 51//58 96//169
f 96//169 75//181 52//59
f 87//100 88//102 28//29
f 108//182 58//67 57//66
f 41//183 68//79 130//176
f 67//78 7//7 82//95
f 6//6 77//88 83//96
f 41//47 43//50 70//81
f 70//81 129//174 41//47
f 113//184 47//185 32//37
f 45//52 55//64 112//186
f 76//131 16//16 52//187
f 29//32 51//58 125//166
f 98//116 53//62 19//61
f 73//84 56//65 55//64
f 103//122 121//157 120//156
f 99//117 54//63 53//62
f 91//106 107//126 95//111
f 91//106 95//111 3//3
f 66//76 65//75 79//91
f 4//4 69//80 93//175
f 4//4 7//7 69//80
f 93//175 90//105 4//4
f 17//17 132//188 85//98
f 111//132 22//22 133//189
f 6//6 5//5 39//45
f 56//65 95//111 65//190
f 3//3 74//85 1//1
f 84//97 86//99 100//167
f 102//121 101//191 103//122
f 107//126 106//125 80//92
f 102//121 36//41 101//191
f 132//192 86//192 85//192
f 9//193 123//194 126//195
f 126//195 10//196 9//193
f 107//126 79//91 65//75
f 43//149 40//46 72//83
f 133//189 22//22 105//124
f 105//124 130//176 133//189
f 37//42 77//88 39//45
f 67//78 133//189 68//79
f 65//75 95//111 107//126
f 131//197 65//75 126//198
f 62//71 51//58 29//32
f 121//157 103//122 86//199
f 121//157 86//199 132//188
f 132//188 122//158 121//157
f 107//126 80//92 79//91
f 102//121 78//89 77//88
f 77//88 37//42 102//121
f 15//60 125//166 51//58
f 63//200 38//201 34//38
f 63//200 34//38 32//37
f 56//202 65//75 57//203
f 7//7 67//78 69//80
f 133//189 67//78 111//132
f 34//204 123//194 9//193
f 134//205 25//25 93//109
f 94//110 134//205 93//109
f 65//190 10//196 126//195
f 31//206 63//207 32//208
f 99//117 53//62 98//116
f 101//191 86//199 103//122
f 55//64 45//52 73//84
f 60//154 98//209 19//19
f 125//166 124//165 29//32
f 15//15 52//187 16//16
f 45//52 112//186 46//53
f 10//10 64//74 8//8
f 90//105 92//107 5//5
f 5//5 4//4 90//105
f 127//172 3//3 2//2
f 2//2 92//107 127//172
f 82//95 111//132 67//78
f 130//176 42//48 41//183
f 57//203 65//75 108//210
f 109//129 11//177 13//211
f 134//205 94//110 128//173
f 134//205 128//173 114//137
f 23//23 134//205 114//137
f 111//132 82//95 81//94
f 1//28 87//100 28//29
f 134//205 23//23 25//25
f 115//139 18//18 26//26
f 62//212 89//152 96//112
f 12//12 38//213 14//155
f 113//184 32//37 8//39
f 130//176 105//124 104//123
f 25//143 106//125 90//105
f 70//81 30//33 128//173
f 76//214 97//113 117//162
f 44//51 46//53 118//164
f 128//173 124//165 114//137
f 19//61 120//156 122//158
f 54//63 120//156 19//61
f 131//178 11//177 109//129
f 109//129 108//128 131//178
f 61//70 78//89 59//68
f 125//166 31//34 114//137
f 11//11 123//171 12//12
f 8//39 34//43 9//215
f 129//174 94//110 68//79
f 68//79 41//183 129//174
f 17//17 122//158 132//188
f 129//174 128//173 94//110
f 117//216 119//151 118//164
f 74//85 95//111 56//65
f 80//159 24//144 50//57
f 47//87 50//180 33//36
f 61//90 83//96 77//88
f 88//102 87//100 74//85
f 74//85 73//84 88//102
f 81//217 61//70 60//69
f 97//113 96//112 89//152
f 15//60 63//207 31//206
f 31//206 125//166 15//60
f 131//197 108//210 65//75
f 2//218 70//81 43//50
f 91//106 127//172 92//107
f 70//81 2//218 1//219
f 68//79 133//189 130//176
f 112//220 55//64 58//67
f 58//67 116//161 112//220
f 97//113 76//214 75//114
f 124//165 128//173 30//33
f 30//33 29//32 124//165
f 105//124 22//22 21//21
f 21//21 71//82 105//124
f 101//120 36//138 100//118
f 102//121 37//42 36//41
f 71//115 84//97 104//123
f 23//23 114//137 33//36
f 8//136 64//221 48//55
f 76//131 117//147 110//130
f 40//49 104//123 35//168
f 17//17 85//98 26//26
