# Blender v2.78 (sub 0) OBJ File: ''
# www.blender.org
mtllib rightupperarm.mtl
o sub01.000_sub01.028
v 8.582800 1.458402 -3.634900
v 8.666800 3.322001 -3.552500
v 9.024500 2.368802 -3.678699
v 9.129500 1.554202 -3.733000
v 8.339300 5.815200 -2.517098
v 8.821600 3.313700 -3.020998
v 8.240900 5.810400 -2.962198
v 9.166600 0.229502 -3.817400
v 9.570200 -0.000198 -3.668800
v 9.304200 -0.191298 -3.741900
v 9.077400 0.570202 -3.251900
v 9.091100 0.111000 -2.949100
v 9.615900 0.298400 -2.907700
v 9.570100 0.654402 -3.110400
v 10.487600 0.678800 -3.102200
v 10.677500 0.544802 -3.408000
v 10.606500 0.845202 -3.448400
v 5.590400 10.891000 -1.026896
v 5.649900 11.183600 -1.554896
v 5.551500 10.582700 -1.923096
v 9.951300 0.035502 -3.117100
v 9.686800 -0.071700 -3.001200
v 9.797000 -0.174198 -3.308700
v 10.013900 -0.061698 -3.340300
v 6.382000 11.518800 -1.297996
v 6.589400 11.502100 -1.275996
v 6.199800 11.445100 -1.778596
v 6.143400 11.516500 -1.481196
v 10.186700 0.771300 -3.049500
v 9.866200 1.263902 -3.364800
v 9.243500 -0.436998 -3.589100
v 9.569900 -0.164098 -3.490100
v 8.670400 0.129702 -3.256000
v 8.407600 0.117202 -3.343400
v 8.296700 0.121402 -3.794900
v 6.339300 9.672900 -1.273596
v 5.895600 10.155000 -0.998996
v 5.762700 10.028300 -1.625996
v 6.157400 10.489600 -2.262196
v 7.473100 8.683400 -2.310097
v 7.204600 8.648600 -2.391698
v 8.318600 3.168200 -2.896399
v 8.808600 1.466700 -3.171300
v 9.063000 1.548000 -3.025900
v 8.641000 3.215000 -2.736700
v 10.641100 0.330702 -3.542200
v 10.528600 0.224402 -3.197700
v 10.414400 -0.014398 -3.411500
v 9.028600 0.919502 -3.734900
v 8.943000 0.800902 -3.765000
v 9.077700 -0.322998 -3.870800
v 8.922100 -0.502098 -3.340300
v 8.887500 -0.262298 -3.498600
v 8.950600 -0.162998 -3.694400
v 8.694800 0.650702 -3.233500
v 8.479300 0.670302 -3.411200
v 7.410000 10.689900 -1.829896
v 7.146500 10.528600 -2.056896
v 7.062400 10.951900 -2.123996
v 7.485500 10.564500 -1.329896
v 7.465500 11.041300 -1.536296
v 5.834600 11.347000 -1.361796
v 9.396000 0.970602 -3.140500
v 9.666900 1.718402 -3.378000
v 9.448100 1.041302 -3.753000
v 9.526400 1.662302 -3.751300
v 8.823800 0.538602 -3.807000
v 8.142400 3.172200 -3.095598
v 7.567300 5.618701 -2.517098
v 7.588800 5.656900 -2.776298
v 8.130100 3.214401 -3.259099
v 6.077900 10.851800 -0.550596
v 6.985000 11.145000 -0.712496
v 6.750200 11.340300 -0.934996
v 6.963500 8.433100 -1.503198
v 7.316900 8.501100 -1.447298
v 7.084400 9.811400 -1.163896
v 8.384700 -0.127698 -3.760700
v 8.772700 -0.198398 -3.370700
v 8.362800 -0.073098 -3.681400
v 9.238000 -0.409798 -3.291400
v 9.148400 -0.284999 -3.034100
v 6.079600 11.409300 -1.180496
v 6.115400 11.148900 -0.731396
v 10.086600 0.834302 -3.919000
v 10.093700 0.392702 -3.903600
v 9.965900 0.362302 -3.967400
v 6.125600 11.320800 -0.949296
v 5.549400 10.551700 -1.000296
v 9.035300 0.805302 -3.122400
v 9.682000 0.236602 -3.760800
v 7.768800 5.616400 -2.319398
v 8.042300 5.646300 -2.146098
v 6.696200 11.103300 -0.701196
v 5.881000 10.172200 -2.042596
v 6.772000 8.521900 -2.095797
v 6.442000 10.131600 -0.589896
v 6.672400 9.673500 -0.991296
v 6.978500 10.498000 -0.870796
v 8.576000 1.071702 -3.671400
v 7.012100 11.369200 -1.518196
v 7.417000 11.040100 -1.228096
v 9.632900 0.359402 -3.732400
v 9.852200 0.750402 -3.920100
v 6.773200 8.441100 -1.727298
v 6.859300 8.417900 -1.579098
v 10.490900 0.030600 -3.062200
v 10.317800 0.009802 -3.506000
v 10.172100 0.026002 -3.572100
v 10.369400 0.493902 -3.795300
v 8.479300 0.739102 -3.715200
v 10.300700 0.423300 -2.743300
v 10.506300 0.471900 -2.880300
v 10.293700 0.981702 -3.823300
v 10.218600 1.379302 -3.750600
v 8.035000 5.772800 -3.075298
v 9.920400 1.819702 -3.719600
v 6.563300 10.659600 -2.229296
v 6.423100 10.999100 -2.309196
v 6.005500 10.850700 -2.271096
v 9.920100 1.880602 -3.601100
v 10.274100 1.395402 -3.631400
v 10.048700 -0.067798 -3.675700
v 9.767500 -0.121698 -3.534700
v 9.034700 3.411201 -3.413898
v 8.531700 1.014202 -3.441200
v 8.502300 1.440802 -3.500200
v 8.755400 0.834602 -3.241400
v 6.937600 11.438200 -1.339596
v 7.686300 8.675100 -1.888598
v 8.395800 -0.081098 -3.817900
v 9.976100 1.188402 -3.878900
v 7.503000 9.905700 -1.544896
v 6.159400 10.167800 -0.801896
vn -0.3559 0.0606 -0.9326
vn -0.1033 0.1562 -0.9823
vn -0.0754 0.0854 -0.9935
vn -0.1046 0.0303 -0.9940
vn 0.9190 0.2725 -0.2850
vn 0.9506 0.2261 -0.2126
vn 0.9419 0.2613 -0.2110
vn 0.1710 -0.0261 -0.9849
vn 0.2715 -0.1390 -0.9523
vn 0.4035 -0.0321 -0.9144
vn -0.1413 0.5163 0.8447
vn -0.0499 0.5488 0.8345
vn -0.2850 0.4713 0.8347
vn -0.1296 0.2792 0.9514
vn 0.9365 0.1089 0.3333
vn 0.9132 -0.0235 0.4069
vn 0.8671 0.2619 0.4237
vn -0.8196 0.4146 0.3955
vn -0.9851 0.1712 -0.0161
vn -0.9446 -0.1700 -0.2808
vn 0.2212 -0.7105 0.6681
vn 0.3860 -0.8066 0.4477
vn 0.3627 -0.9201 0.1480
vn 0.2908 -0.9471 0.1359
vn -0.0306 0.9858 0.1650
vn 0.1043 0.9900 0.0951
vn -0.1191 0.8978 -0.4239
vn -0.2748 0.9615 0.0053
vn 0.1565 0.6794 0.7169
vn 0.3371 0.3831 0.8600
vn 0.1403 -0.3700 0.9184
vn 0.1625 -0.2006 0.9661
vn 0.5591 -0.4066 -0.7226
vn 0.6038 -0.4830 -0.6342
vn 0.6214 -0.5158 -0.5897
vn 0.0551 -0.9982 -0.0228
vn -0.5594 -0.6084 0.5630
vn -0.5860 -0.6504 0.4833
vn -0.8263 -0.5562 0.0892
vn -0.1101 -0.0262 -0.9936
vn 0.6250 0.2518 -0.7389
vn 0.3065 0.2717 -0.9123
vn -0.5378 -0.2904 0.7915
vn -0.5997 -0.1481 0.7864
vn 0.1029 -0.0778 0.9916
vn 0.1009 -0.1815 0.9782
vn 0.8982 -0.4062 0.1680
vn 0.9685 -0.2001 0.1479
vn 0.9102 -0.4135 -0.0244
vn -0.0517 0.1113 -0.9924
vn -0.0160 0.1860 -0.9824
vn -0.8483 -0.1518 -0.5072
vn -0.8504 -0.3698 -0.3743
vn -0.8663 -0.3092 -0.3923
vn -0.8256 -0.0349 -0.5632
vn -0.4508 0.0079 0.8926
vn -0.6028 0.1884 0.7753
vn -0.4756 0.0755 0.8764
vn 0.8690 0.0507 -0.4922
vn 0.6058 0.0287 -0.7951
vn 0.4022 -0.0702 -0.9129
vn 0.9977 0.0511 -0.0447
vn 0.9991 0.0418 -0.0003
vn -0.7340 0.6707 -0.1066
vn -0.6056 0.7816 0.1496
vn 0.2490 0.1001 0.9633
vn 0.4922 0.1498 0.8575
vn -0.1428 0.0273 -0.9894
vn -0.0684 0.0941 -0.9932
vn -0.0606 0.1221 -0.9907
vn -0.9200 -0.2751 0.2792
vn -0.9101 -0.3170 0.2669
vn -0.8594 -0.1053 -0.5003
vn -0.9719 -0.2352 0.0124
vn 0.0842 0.4411 0.8935
vn 0.2909 0.8186 0.4952
vn 0.0930 0.8098 0.5793
vn -0.1629 -0.3395 0.9264
vn -0.2320 -0.2896 0.9286
vn 0.4934 -0.2134 0.8432
vn -0.4340 -0.8575 0.2764
vn -0.5292 -0.7372 0.4202
vn -0.8036 -0.4061 0.4352
vn 0.3350 -0.9002 0.2783
vn 0.2929 -0.8162 0.4979
vn -0.3274 0.8864 0.3274
vn -0.6311 -0.0218 0.7754
vn -0.2970 0.6482 0.7012
vn 0.2499 0.0636 -0.9662
vn 0.5254 -0.2837 -0.8022
vn -0.1065 -0.1978 -0.9744
vn -0.3681 0.7829 0.5016
vn -0.8275 -0.2934 0.4788
vn -0.2028 -0.1547 0.9669
vn 0.6480 -0.5618 -0.5142
vn 0.7097 -0.5198 -0.4756
vn -0.9952 -0.0457 0.0869
vn -0.6221 -0.1871 0.7602
vn -0.5104 -0.3345 0.7922
vn -0.4820 -0.3195 0.8158
vn 0.0578 -0.6136 -0.7875
vn -0.6139 -0.3082 -0.7268
vn -0.8524 -0.3060 -0.4240
vn -0.9036 -0.3526 -0.2431
vn -0.1106 -0.4946 0.8620
vn 0.4469 -0.1031 0.8886
vn -0.0896 -0.5292 0.8438
vn 0.5878 -0.1449 0.7959
vn 0.6582 0.6754 -0.3325
vn 0.4498 0.6992 -0.5557
vn -0.6233 0.1615 -0.7651
vn 0.3980 0.8797 -0.2602
vn 0.6352 -0.0048 0.7723
vn 0.4347 0.0279 0.9001
vn 0.6783 -0.1574 0.7177
vn -0.5659 -0.6650 0.4874
vn -0.3220 -0.0894 -0.9425
vn -0.2868 0.0325 -0.9574
vn -0.8876 -0.4305 0.1639
vn -0.6541 -0.4207 0.6286
vn -0.2737 0.5021 0.8204
vn 0.7502 0.1429 0.6456
vn 0.9798 -0.1997 -0.0130
vn 0.4065 -0.5311 -0.7434
vn 0.5204 -0.4781 -0.7076
vn 0.5746 -0.1498 -0.8046
vn -0.9743 0.1953 0.1120
vn -0.9705 0.2411 -0.0044
vn 0.0285 0.6441 0.7644
vn -0.3821 -0.3721 -0.8459
vn 0.3077 0.7363 0.6027
vn 0.2613 0.7169 0.6464
vn 0.7993 0.1997 -0.5667
vn 0.5394 0.1616 -0.8264
vn 0.6292 0.3464 -0.6958
vn -0.5788 -0.0431 -0.8143
vn -0.5275 -0.0949 -0.8442
vn -0.0944 0.1878 -0.9777
vn 0.4188 0.3867 -0.8216
vn 0.1646 -0.0320 -0.9858
vn 0.0611 -0.7129 -0.6985
vn -0.0025 -0.8915 -0.4530
vn 0.0114 -0.8392 -0.5438
vn 0.1012 -0.9867 -0.1275
vn 0.2028 -0.9778 -0.0536
vn 0.3878 0.6629 0.6404
vn -0.0391 0.7567 -0.6525
vn -0.5182 0.5972 -0.6122
vn 0.7937 0.5419 -0.2765
vn 0.7824 0.4905 -0.3837
vn 0.3799 -0.9244 -0.0333
vn 0.1509 -0.9584 -0.2423
vn 0.1098 -0.9649 -0.2385
vn 0.0671 -0.9844 -0.1628
vn 0.2201 -0.9593 -0.1767
vn 0.0090 -0.9665 -0.2567
vn 0.8112 0.2850 0.5107
vn 0.6037 0.2720 0.7494
vn 0.1835 -0.5448 -0.8182
vn -0.1787 -0.5552 -0.8123
vn -0.9882 0.1182 -0.0974
vn -0.9082 -0.0304 -0.4174
vn -0.5362 0.0936 0.8389
vn -0.6685 0.0594 0.7414
vn 0.4054 0.9029 0.1429
vn 0.4143 0.3860 0.8242
vn 0.0162 -0.2250 0.9742
vn 0.0221 -0.2068 0.9781
vn 0.8614 0.2698 -0.4304
vn 0.3236 0.2926 -0.8998
vn -0.5129 0.0479 -0.8571
vn 0.0230 -0.2844 -0.9584
vn -0.1201 0.1231 -0.9851
vn 0.6097 -0.5461 -0.5745
vn -0.9593 0.1534 0.2371
vn 0.6302 -0.5163 -0.5799
vn -0.9505 -0.1606 -0.2659
vn 0.3592 0.3003 -0.8836
vn 0.0475 0.1812 -0.9823
vn -0.2366 -0.1610 -0.9582
vn -0.1395 0.1845 -0.9729
vn -0.0718 -0.5445 -0.8357
vn 0.7161 -0.1032 0.6903
vn 0.7401 -0.0214 0.6722
vn 0.7703 0.0038 0.6377
vn -0.3929 -0.9010 0.1839
vn -0.4919 -0.8383 0.2353
vn 0.0012 -0.9000 0.4358
vn 0.1326 -0.1748 -0.9756
vn 0.6033 0.7870 0.1290
vn 0.1547 0.5471 0.8227
vn 0.9005 0.0941 -0.4245
vn -0.7206 -0.1290 0.6812
vn -0.7132 0.1802 -0.6774
vn -0.5881 -0.1298 0.7983
vn 0.9820 0.1083 0.1550
vn -0.0699 -0.6589 0.7490
vn 0.4954 -0.5728 -0.6531
vn 0.5999 -0.2950 -0.7437
vn 0.5763 -0.3286 0.7483
vn -0.6952 0.4549 -0.5566
vn 0.7578 0.1818 -0.6267
vn 0.8440 0.1845 0.5036
vn 0.7736 0.0298 0.6329
vn 0.7854 0.0410 0.6176
vn -0.5504 -0.5330 0.6426
vn -0.5012 -0.5517 0.6666
vn 0.4925 0.0049 -0.8703
vn 0.1477 -0.9377 0.3145
vn 0.9975 -0.0015 0.0712
vn 0.8221 0.5072 -0.2586
vn -0.0714 -0.9385 -0.3378
vn -0.8227 -0.3519 -0.4464
usemtl Bones___Vray.010
s 1
f 1//1 2//2 3//3
f 3//3 4//4 1//1
f 5//5 6//6 7//7
f 8//8 9//9 10//10
f 11//11 12//12 13//13
f 13//13 14//14 11//11
f 15//15 16//16 17//17
f 18//18 19//19 20//20
f 21//21 22//22 23//23
f 23//23 24//24 21//21
f 25//25 26//26 27//27
f 28//28 25//25 27//27
f 14//14 29//29 30//30
f 21//21 13//31 22//32
f 23//33 31//34 32//35
f 33//36 34//36 35//36
f 36//37 37//38 38//39
f 39//40 40//41 41//42
f 42//43 43//44 44//45
f 42//43 44//45 45//46
f 46//47 47//48 48//49
f 49//50 8//8 50//51
f 51//52 52//53 53//54
f 53//54 54//55 51//52
f 55//56 56//57 34//58
f 57//59 58//60 59//61
f 60//62 57//59 61//63
f 27//27 19//64 62//65
f 62//65 28//28 27//27
f 44//45 63//66 64//67
f 65//68 49//50 4//4
f 66//69 65//68 4//4
f 50//51 8//8 67//70
f 68//71 69//72 70//73
f 70//73 71//74 68//71
f 72//75 73//76 74//77
f 75//78 76//79 77//80
f 78//81 79//82 80//83
f 81//84 23//23 22//22
f 22//22 82//85 81//84
f 83//86 25//25 28//28
f 72//87 84//88 18//18
f 85//89 86//90 87//91
f 62//65 19//64 88//92
f 89//93 18//18 20//20
f 14//14 63//66 90//94
f 32//35 9//95 91//96
f 35//97 80//83 33//98
f 92//99 42//43 45//46
f 45//46 93//100 92//99
f 72//101 94//101 73//101
f 38//39 95//102 96//103
f 76//79 75//78 92//99
f 78//104 80//83 35//97
f 55//56 11//105 90//94
f 97//106 98//107 99//108
f 61//109 57//59 59//110
f 49//50 50//51 100//111
f 101//112 61//109 59//110
f 102//113 94//114 99//108
f 60//115 102//113 99//108
f 33//98 79//82 82//116
f 103//117 65//68 104//118
f 96//103 70//73 69//72
f 69//72 105//119 96//103
f 38//39 105//119 106//120
f 53//121 52//121 81//121
f 44//45 64//67 6//122
f 48//49 47//48 107//123
f 108//124 109//125 110//126
f 56//127 111//128 35//97
f 14//14 112//129 29//29
f 88//92 26//26 25//25
f 103//117 104//118 87//91
f 87//91 91//130 103//117
f 20//20 95//102 38//39
f 15//131 29//29 112//129
f 112//129 113//132 15//131
f 17//133 114//134 115//135
f 103//117 91//130 9//136
f 41//137 116//138 70//73
f 70//73 96//103 41//137
f 3//3 2//2 117//139
f 117//139 66//69 3//3
f 40//41 118//140 58//60
f 69//72 106//120 105//119
f 54//141 53//142 78//143
f 81//84 52//144 31//145
f 30//30 29//29 17//146
f 27//27 119//147 120//148
f 117//139 121//149 122//150
f 122//150 115//135 117//139
f 123//151 24//24 23//23
f 38//39 37//38 89//93
f 17//146 29//29 15//131
f 23//23 32//152 124//153
f 48//154 24//24 109//155
f 109//155 108//156 48//154
f 95//102 39//40 41//137
f 41//137 96//103 95//102
f 125//157 6//122 121//158
f 75//78 106//120 92//99
f 91//130 87//91 123//159
f 123//159 124//160 91//130
f 100//111 126//161 127//162
f 127//162 1//1 100//111
f 18//18 88//92 19//64
f 123//151 23//23 124//153
f 128//163 43//44 126//164
f 128//163 126//164 56//57
f 55//56 128//163 56//57
f 129//165 74//77 73//76
f 17//146 122//166 30//30
f 12//167 82//168 22//32
f 22//32 13//31 12//167
f 103//117 9//9 8//8
f 40//41 130//169 5//5
f 98//107 36//37 106//120
f 106//120 75//78 98//107
f 2//2 125//170 117//139
f 116//138 2//2 71//171
f 71//171 70//73 116//138
f 67//70 8//8 131//172
f 67//70 131//172 35//173
f 122//150 17//133 115//135
f 90//94 44//45 43//44
f 90//94 43//44 128//163
f 38//39 89//93 20//20
f 32//35 31//34 10//174
f 10//174 9//95 32//35
f 88//92 25//25 83//86
f 74//77 26//26 88//92
f 56//127 35//97 34//175
f 51//176 10//174 31//34
f 4//4 3//3 66//69
f 45//46 44//45 6//122
f 1//177 127//162 68//71
f 106//120 36//37 38//39
f 40//41 7//178 41//42
f 103//117 8//8 65//68
f 117//139 132//179 66//69
f 16//16 47//48 46//47
f 95//102 20//20 120//180
f 95//102 120//180 39//40
f 111//181 100//111 50//51
f 67//70 111//181 50//51
f 27//27 101//112 59//110
f 27//27 26//26 101//112
f 27//27 59//110 119//147
f 98//107 77//80 99//108
f 4//4 49//50 1//1
f 124//160 32//182 91//130
f 123//151 109//155 24//24
f 133//183 76//184 130//185
f 53//186 81//187 82//116
f 7//178 125//170 116//138
f 107//188 24//24 48//154
f 104//118 132//179 85//89
f 111//128 56//127 126//161
f 126//161 100//111 111//128
f 26//26 74//77 129//165
f 120//180 119//189 118//140
f 87//91 104//118 85//89
f 101//112 129//165 102//190
f 101//112 102//190 61//109
f 28//28 62//65 83//86
f 55//191 12//12 11//11
f 79//82 33//98 80//83
f 58//60 57//59 133//192
f 53//186 82//116 79//82
f 68//71 127//193 43//44
f 68//71 43//44 42//43
f 51//52 54//55 8//194
f 55//56 33//98 12//195
f 94//114 97//106 99//108
f 26//26 129//165 101//112
f 61//63 102//196 60//62
f 118//140 39//40 120//180
f 34//58 33//98 55//56
f 112//197 21//21 107//188
f 104//118 65//68 132//179
f 107//188 21//21 24//24
f 125//170 2//2 116//138
f 72//75 74//77 84//88
f 133//183 77//80 76//184
f 48//198 108//124 46//199
f 123//159 87//91 86//90
f 109//125 123//159 86//90
f 107//200 113//200 112//200
f 30//30 63//66 14//14
f 88//92 83//86 62//65
f 132//179 115//135 114//134
f 114//134 85//89 132//179
f 19//64 120//148 20//201
f 16//16 15//15 47//48
f 117//139 115//135 132//179
f 110//126 114//134 17//133
f 17//133 16//202 110//126
f 7//178 116//138 41//42
f 2//2 1//1 71//171
f 71//74 1//177 68//71
f 6//122 125//157 7//203
f 8//8 54//141 131//172
f 16//202 46//199 110//126
f 90//94 63//66 44//45
f 84//88 74//77 88//92
f 60//115 99//108 77//80
f 133//183 60//115 77//80
f 97//106 94//114 72//75
f 88//92 18//18 84//88
f 21//21 112//197 13//31
f 23//23 81//84 31//145
f 53//186 79//82 78//81
f 6//122 5//204 93//205
f 93//205 45//46 6//122
f 39//40 118//140 40//41
f 97//206 72//87 134//207
f 7//7 40//41 5//5
f 49//50 65//68 8//8
f 51//208 8//8 10//10
f 94//209 102//209 73//209
f 102//190 129//165 73//76
f 85//89 114//134 110//126
f 110//126 86//90 85//89
f 134//207 36//37 98//107
f 98//107 97//206 134//207
f 63//66 30//30 64//67
f 113//210 107//123 47//48
f 113//210 47//48 15//15
f 132//179 65//68 66//69
f 92//99 69//72 68//71
f 42//43 92//99 68//71
f 121//149 117//139 125//211
f 98//107 75//78 77//80
f 35//173 111//181 67//70
f 31//145 52//144 51//212
f 30//30 122//166 121//158
f 30//30 121//158 64//67
f 72//87 18//18 89//93
f 127//193 126//164 43//44
f 36//37 134//207 37//38
f 120//148 19//64 27//27
f 14//14 90//94 11//105
f 46//199 108//124 110//126
f 78//143 131//172 54//141
f 69//72 92//99 106//120
f 121//158 6//122 64//67
f 96//103 105//119 38//39
f 76//79 92//99 93//100
f 35//97 131//213 78//104
f 55//56 90//94 128//163
f 60//62 133//192 57//59
f 134//207 72//87 89//93
f 134//207 89//93 37//38
f 100//111 1//1 49//50
f 118//140 119//189 59//61
f 59//61 58//60 118//140
f 14//14 13//13 112//129
f 33//98 82//116 12//195
f 109//125 86//90 110//126
f 130//185 76//184 93//205
f 93//205 5//204 130//185
f 40//41 58//60 133//192
f 133//192 130//169 40//41
